<?xml version="1.0" encoding="UTF-8" standalone="no"?>
<svg
   version="1.1"
   width="391"
   height="553"
   style="clip-rule:evenodd;fill-rule:evenodd;image-rendering:optimizeQuality;shape-rendering:geometricPrecision;text-rendering:geometricPrecision"
   id="svg36"
   sodipodi:docname="icon_cocktail-icons.svg"
   inkscape:version="1.4.2 (ebf0e940d0, 2025-05-08)"
   inkscape:export-filename="icon_highball.svg"
   inkscape:export-xdpi="96"
   inkscape:export-ydpi="96"
   xmlns:inkscape="http://www.inkscape.org/namespaces/inkscape"
   xmlns:sodipodi="http://sodipodi.sourceforge.net/DTD/sodipodi-0.dtd"
   xmlns="http://www.w3.org/2000/svg"
   xmlns:svg="http://www.w3.org/2000/svg">
  <defs
     id="defs36">
    <inkscape:path-effect
       effect="mirror_symmetry"
       start_point="735.50054,254.49977"
       end_point="735.50054,768.49977"
       center_point="735.50054,511.49977"
       id="path-effect4"
       is_visible="true"
       lpeversion="1.2"
       lpesatellites=""
       mode="free"
       discard_orig_path="false"
       fuse_paths="false"
       oposite_fuse="false"
       split_items="false"
       split_open="false"
       link_styles="false" />
    <inkscape:path-effect
       effect="mirror_symmetry"
       start_point="735.50054,235.49791"
       end_point="735.50054,787.49987"
       center_point="735.50054,511.49889"
       id="path-effect3"
       is_visible="true"
       lpeversion="1.2"
       lpesatellites=""
       mode="free"
       discard_orig_path="false"
       fuse_paths="false"
       oposite_fuse="false"
       split_items="false"
       split_open="false"
       link_styles="false" />
    <inkscape:path-effect
       effect="fillet_chamfer"
       id="path-effect2"
       is_visible="true"
       lpeversion="1"
       nodesatellites_param="F,0,0,1,0,0,0,1 @ F,0,0,1,0,0,0,1 @ F,0,0,1,0,0,0,1 @ F,0,0,1,0,0,0,1 @ F,0,0,1,0,5.210827,0,1 @ F,0,0,1,0,0,0,1 @ F,0,0,1,0,0,0,1 @ F,0,0,1,0,0,0,1 @ F,0,0,1,0,0,0,1 @ F,0,0,1,0,0,0,1 @ F,0,0,1,0,0,0,1 @ F,0,0,1,0,0,0,1 @ F,0,0,1,0,0,0,1 | F,0,0,1,0,0,0,1 @ F,0,0,1,0,0,0,1 @ F,0,0,1,0,0,0,1 @ F,0,0,1,0,0,0,1 @ F,0,0,1,0,0,0,1 @ F,0,0,1,0,0,0,1 @ F,0,0,1,0,0,0,1 @ F,0,0,1,0,0,0,1 @ F,0,0,1,0,0,0,1 @ F,0,0,1,0,0,0,1 @ F,0,0,1,0,0,0,1 @ F,0,0,1,0,0,0,1 @ F,0,0,1,0,0,0,1"
       radius="0"
       unit="px"
       method="auto"
       mode="F"
       chamfer_steps="1"
       flexible="false"
       use_knot_distance="true"
       apply_no_radius="true"
       apply_with_radius="true"
       only_selected="false"
       hide_knots="false" />
    <inkscape:path-effect
       effect="mirror_symmetry"
       start_point="301.36968,387.49986"
       end_point="301.36968,787.4999"
       center_point="301.36968,587.49988"
       id="path-effect1"
       is_visible="true"
       lpeversion="1.2"
       lpesatellites=""
       mode="free"
       discard_orig_path="false"
       fuse_paths="false"
       oposite_fuse="false"
       split_items="false"
       split_open="false"
       link_styles="false" />
  </defs>
  <sodipodi:namedview
     id="namedview36"
     pagecolor="#ffffff"
     bordercolor="#000000"
     borderopacity="0.25"
     inkscape:showpageshadow="2"
     inkscape:pageopacity="0.0"
     inkscape:pagecheckerboard="0"
     inkscape:deskcolor="#d1d1d1"
     inkscape:zoom="1.5923713"
     inkscape:cx="166.73247"
     inkscape:cy="272.86349"
     inkscape:window-width="2560"
     inkscape:window-height="1371"
     inkscape:window-x="0"
     inkscape:window-y="0"
     inkscape:window-maximized="1"
     inkscape:current-layer="svg36"
     showguides="true"
     showgrid="true">
    <sodipodi:guide
       position="-638.84114,586.54703"
       orientation="0,-1"
       id="guide36"
       inkscape:locked="false" />
    <sodipodi:guide
       position="-559.69425,-0.19092158"
       orientation="0,-1"
       id="guide37"
       inkscape:locked="false" />
    <sodipodi:guide
       position="197.07314,881.38046"
       orientation="1,0"
       id="guide39"
       inkscape:locked="false" />
    <inkscape:grid
       id="grid39"
       units="px"
       originx="-538.9361"
       originy="-235.43736"
       spacingx="1"
       spacingy="1"
       empcolor="#0099e5"
       empopacity="0.30196078"
       color="#0099e5"
       opacity="0.14901961"
       empspacing="5"
       enabled="true"
       visible="true" />
  </sodipodi:namedview>
  <g
     inkscape:groupmode="layer"
     id="layer1"
     inkscape:label="TUMBLER"
     style="display:none"
     transform="translate(-538.93609,-235.43736)">
    <path
       id="path26"
       style="clip-rule:evenodd;display:inline;opacity:1;fill-rule:evenodd;image-rendering:optimizeQuality;shape-rendering:geometricPrecision;text-rendering:geometricPrecision"
       inkscape:label="tumber"
       d="m 301.36968,387.49986 c -51.9565,0.002 -103.91239,0.1689 -155.86914,0.5 -2.496,1.331 -4.496,3.164 -6,5.5 -0.844,7.94 -0.678,15.94 0.5,24 9.35915,104.3161 27.05981,300.33274 30.84363,334.83203 0.31367,2.85997 1.22059,7.44813 2.36789,10.08438 5.17177,11.88363 16.96345,20.98447 31.28848,24.58359 32.28992,0.33652 64.57922,0.50305 96.86914,0.5 v -15.88672 c -13.28614,0.12356 -26.57544,-0.0466 -39.86914,-0.50976 -15.133,-1.21959 -32.3537,-0.43004 -47.2207,-3.84766 -17.501,-7.92382 -24.56003,-11.75765 -28.17187,-45.25 -8.07,-104.55966 -19.67743,-210.22926 -28.60743,-314.34375 47.91509,-0.67352 95.87102,-1.05844 143.86914,-1.15625 z m 0,0 c 51.9565,0.002 103.91239,0.1689 155.86914,0.5 2.496,1.331 4.496,3.164 6,5.5 0.844,7.94 0.678,15.94 -0.5,24 -10.172,113.376 -30.19735,335.0727 -31.5,340 -3.77113,14.2644 -16.757,25.419 -33,29.5 -32.28992,0.33652 -64.57922,0.50305 -96.86914,0.5 v -15.88672 c 13.28614,0.12356 26.57544,-0.0466 39.86914,-0.50976 15.133,-1.21959 32.3537,-0.43004 47.2207,-3.84766 17.501,-7.92382 24.56003,-11.75765 28.17187,-45.25 8.07,-104.55966 19.67743,-210.22926 28.60743,-314.34375 -47.91509,-0.67352 -95.87102,-1.05844 -143.86914,-1.15625 z"
       transform="translate(433.5)"
       inkscape:path-effect="#path-effect1;#path-effect2"
       inkscape:original-d="m 301.36968,387.49986 c -51.9565,0.002 -103.91239,0.1689 -155.86914,0.5 -2.496,1.331 -4.496,3.164 -6,5.5 -0.844,7.94 -0.678,15.94 0.5,24 10.172,113.376 30.19735,335.0727 31.5,340 3.77113,14.2644 16.757,25.419 33,29.5 32.28992,0.33652 64.57922,0.50305 96.86914,0.5 v -15.88672 c -13.28614,0.12356 -26.57544,-0.0466 -39.86914,-0.50976 -15.133,-1.21959 -32.3537,-0.43004 -47.2207,-3.84766 -17.501,-7.92382 -24.56003,-11.75765 -28.17187,-45.25 -8.07,-104.55966 -19.67743,-210.22926 -28.60743,-314.34375 47.91509,-0.67352 95.87102,-1.05844 143.86914,-1.15625 z"
       sodipodi:nodetypes="ccccsccccccccc" />
  </g>
  <g
     inkscape:groupmode="layer"
     id="layer3"
     inkscape:label="BOWL"
     style="clip-rule:evenodd;display:inline;fill-rule:evenodd;image-rendering:optimizeQuality;shape-rendering:geometricPrecision;text-rendering:geometricPrecision"
     transform="translate(-538.93609,-235.43736)">
    <path
       id="path12"
       style="clip-rule:evenodd;display:none;opacity:1;fill-rule:evenodd;image-rendering:optimizeQuality;shape-rendering:geometricPrecision;text-rendering:geometricPrecision"
       inkscape:label="bowl"
       d="m 1019.5006,303.99986 c -3.08,0.786 -5.25,2.619 -6.5,5.5 -0.5,5.657 -0.67,11.324 -0.5,17 3.5,54.52 28.16,96.353 74,125.5 20.17,12.171 41.51,21.838 64,29 7.13,3.636 12.8,8.802 17,15.5 2.39,2.413 4.55,5.08 6.5,8 5.87,10.614 9.54,21.947 11,34 0.67,53.333 0.67,106.667 0,160 -1.21,4.145 -2.71,8.145 -4.5,12 -6.68,12.512 -16.68,21.345 -30,26.5 -19.43,5.352 -39.09,9.686 -59,13 -7.29,1.054 -12.46,4.887 -15.5,11.5 -3.23,11.049 0.27,19.216 10.5,24.5 80.61,1.658 161.28,1.991 242,1 5.69,-0.928 10.19,-3.761 13.5,-8.5 5.37,-13.086 1.54,-22.253 -11.5,-27.5 -20.88,-3.812 -41.54,-8.478 -62,-14 -18.74,-7.402 -30.24,-20.902 -34.5,-40.5 -0.67,-53 -0.67,-106 0,-159 5.21,-36.876 26.04,-59.376 62.5,-67.5 38.5,-15.355 68.5,-40.521 90,-75.5 14.58,-27.807 19.74,-57.14 15.5,-88 -1.42,-0.96 -2.92,-1.793 -4.5,-2.5 -126,-0.667 -252,-0.667 -378,0 z m 12,19.5 h 353 c -2.5,52.52 -26.5,91.686 -72,117.5 -31.93,17.366 -65.93,28.2 -102,32.5 -37.84,-4.225 -73.51,-15.392 -107,-33.5 -44.68,-25.885 -68.68,-64.718 -72,-116.5 z m 159,167 c 6.08,1.409 12.25,2.076 18.5,2 7.56,-0.302 15.06,-0.802 22.5,-1.5 -9.03,13.089 -14.53,27.589 -16.5,43.5 -0.67,55 -0.67,110 0,165 5.59,24.006 19.42,41.506 41.5,52.5 20.38,7.643 41.38,12.809 63,15.5 -73,1.333 -146,1.333 -219,0 15.79,-2.458 31.46,-5.625 47,-9.5 27.7,-8.363 46.2,-26.196 55.5,-53.5 1.65,-56.296 1.98,-112.63 1,-169 -2.16,-16.151 -7.66,-30.984 -16.5,-44.5 1,-0.167 2,-0.333 3,-0.5 z"
       transform="translate(-473.50001)" />
  </g>
  <g
     inkscape:groupmode="layer"
     id="layer2"
     inkscape:label="HIGHBALL"
     style="clip-rule:evenodd;display:inline;fill-rule:evenodd;image-rendering:optimizeQuality;shape-rendering:geometricPrecision;text-rendering:geometricPrecision"
     transform="translate(-538.93609,-235.43736)">
    <path
       id="path18"
       style="clip-rule:evenodd;display:inline;opacity:1;fill:none;fill-rule:evenodd;stroke:#000000;stroke-width:21;stroke-linecap:round;stroke-linejoin:round;stroke-dasharray:none;stroke-opacity:1;image-rendering:optimizeQuality;shape-rendering:geometricPrecision;text-rendering:geometricPrecision"
       inkscape:label="highball"
       d="m 735.50054,768.49977 c -33.99996,0 -68.00004,-0.1665 -102,-0.5 -2.315,-1.109 -3.815,-2.943 -4.5,-5.5 -4.60459,-39.9878 -9.62854,-451.72806 -9.00055,-507.49986 44.95789,-0.49997 70.45851,-0.33355 115.50055,-0.50014 m 0,514 c 33.99996,0 68.00004,-0.1665 102,-0.5 2.315,-1.109 3.815,-2.943 4.5,-5.5 4.60459,-39.9878 9.62854,-451.72806 9.00055,-507.49986 -44.95789,-0.49997 -70.45851,-0.33355 -115.50055,-0.50014"
       sodipodi:nodetypes="ccccc"
       inkscape:path-effect="#path-effect4"
       inkscape:original-d="m 735.50054,768.49977 c -33.99996,0 -68.00004,-0.1665 -102,-0.5 -2.315,-1.109 -3.815,-2.943 -4.5,-5.5 -4.60459,-39.9878 -9.62854,-451.72806 -9.00055,-507.49986 44.95789,-0.49997 70.45851,-0.33355 115.50055,-0.50014" />
  </g>
</svg>
